<svg width="41" height="40" viewBox="0 0 41 40" fill="none" xmlns="http://www.w3.org/2000/svg">
<g id="authentic products" clip-path="url(#clip0_4_91687)">
<path id="Vector" d="M20.8582 29.65C18.2983 29.6456 15.8446 28.6275 14.0345 26.8187C12.2244 25.0099 11.2056 22.558 11.2012 20C11.2012 17.4406 12.2186 14.9861 14.0296 13.1764C15.8407 11.3667 18.297 10.35 20.8582 10.35C23.4194 10.35 25.8757 11.3667 27.6867 13.1764C29.4978 14.9861 30.5152 17.4406 30.5152 20C30.5108 22.558 29.4919 25.0099 27.6818 26.8187C25.8718 28.6275 23.418 29.6456 20.8582 29.65ZM20.8582 12.3666C19.8528 12.3666 18.8573 12.5645 17.9285 12.949C16.9997 13.3334 16.1558 13.8969 15.4449 14.6073C14.734 15.3176 14.1701 16.161 13.7854 17.0891C13.4006 18.0173 13.2026 19.012 13.2026 20.0166C13.2114 22.0413 14.0213 23.9803 15.4556 25.4104C16.8899 26.8405 18.832 27.6456 20.8582 27.65C22.8872 27.6456 24.8319 26.8382 26.2666 25.4045C27.7013 23.9708 28.5093 22.0275 28.5137 20C28.5093 17.974 27.7008 16.0324 26.2656 14.6014C24.8304 13.1703 22.8857 12.3666 20.8582 12.3666Z" fill="#EAB308"/>
<path id="Vector_2" d="M19.6737 23.7667C19.5399 23.769 19.4071 23.7435 19.2837 23.6918C19.1602 23.6402 19.0488 23.5635 18.9566 23.4667L15.7876 20.3C15.6032 20.1103 15.5 19.8562 15.5 19.5917C15.5 19.3272 15.6032 19.0731 15.7876 18.8833C15.8806 18.7901 15.991 18.7161 16.1127 18.6657C16.2343 18.6152 16.3647 18.5892 16.4964 18.5892C16.6281 18.5892 16.7586 18.6152 16.8802 18.6657C17.0018 18.7161 17.1123 18.7901 17.2053 18.8833L19.6737 21.3333L24.5106 16.5C24.6024 16.4047 24.7125 16.3289 24.8343 16.2772C24.9561 16.2254 25.0871 16.1987 25.2194 16.1987C25.3518 16.1987 25.4828 16.2254 25.6046 16.2772C25.7264 16.3289 25.8365 16.4047 25.9283 16.5C26.1127 16.6897 26.2159 16.9438 26.2159 17.2083C26.2159 17.4728 26.1127 17.7269 25.9283 17.9167L20.3742 23.45C20.2867 23.5494 20.1789 23.6291 20.0581 23.6837C19.9373 23.7383 19.8063 23.7666 19.6737 23.7667Z" fill="#EAB308"/>
<path id="Vector_3" d="M20.8576 36.1C19.8786 36.0089 18.9547 35.6057 18.2224 34.95C17.8648 34.6633 17.4654 34.4329 17.0382 34.2667C16.5575 34.1911 16.0679 34.1911 15.5871 34.2667C14.6468 34.4548 13.671 34.338 12.8018 33.9333C12.0234 33.3696 11.4403 32.5772 11.1339 31.6667C10.9718 31.219 10.7349 30.802 10.4334 30.4334C10.0692 30.1342 9.65771 29.8976 9.21584 29.7333C8.29641 29.4343 7.4961 28.8506 6.93085 28.0667C6.53024 27.1907 6.41927 26.21 6.61397 25.2667C6.68975 24.7919 6.68975 24.3081 6.61397 23.8334C6.43809 23.4076 6.20218 23.0091 5.91344 22.65C5.26532 21.9147 4.86812 20.9925 4.7793 20.0167C4.8458 19.0428 5.21951 18.115 5.84674 17.3667C6.13887 17.01 6.37507 16.611 6.54724 16.1834C6.62302 15.7086 6.62302 15.2248 6.54724 14.75C6.35254 13.8067 6.46354 12.826 6.86414 11.95C7.4294 11.1661 8.22971 10.5824 9.14914 10.2834C9.59406 10.1147 10.0103 9.87859 10.3834 9.58335C10.6729 9.20951 10.9035 8.79358 11.0672 8.35002C11.3736 7.43946 11.9566 6.6471 12.7351 6.08335C13.6043 5.67873 14.5801 5.56195 15.5204 5.75002C16.0012 5.82556 16.4907 5.82556 16.9715 5.75002C17.4005 5.58756 17.8004 5.3568 18.1557 5.06668C18.8896 4.41603 19.8135 4.01866 20.7909 3.93335C21.7683 4.01866 22.6923 4.41603 23.4262 5.06668C23.7855 5.35521 24.1843 5.59093 24.6104 5.76669C25.0918 5.83291 25.58 5.83291 26.0614 5.76669C27.0017 5.57862 27.9775 5.6954 28.8468 6.10002C29.6252 6.66377 30.2082 7.45612 30.5146 8.36668C30.6768 8.81436 30.9136 9.23137 31.2151 9.60002C31.5794 9.89917 31.9908 10.1357 32.4327 10.3C33.3521 10.599 34.1524 11.1828 34.7177 11.9667C35.1183 12.8427 35.2293 13.8234 35.0346 14.7667C34.9588 15.2415 34.9588 15.7252 35.0346 16.2C35.2491 16.6305 35.5306 17.0243 35.8685 17.3667C36.5199 18.1064 36.9173 19.035 37.0027 20.0167C36.9139 20.9925 36.5166 21.9147 35.8685 22.65C35.5772 23.0073 35.3411 23.4062 35.168 23.8334C35.0922 24.3081 35.0922 24.7919 35.168 25.2667C35.3627 26.21 35.2517 27.1907 34.8511 28.0667C34.2859 28.8506 33.4856 29.4343 32.5661 29.7333C32.1243 29.9085 31.7089 30.1441 31.3319 30.4334C31.0423 30.8072 30.8117 31.2231 30.6481 31.6667C30.3417 32.5772 29.7586 33.3696 28.9802 33.9333C28.1109 34.338 27.1351 34.4548 26.1948 34.2667C25.7141 34.1911 25.2245 34.1911 24.7438 34.2667C24.3165 34.4329 23.9172 34.6633 23.5596 34.95C22.8094 35.6189 21.8601 36.023 20.8576 36.1ZM16.4878 32.2C16.8385 32.2079 17.1865 32.2639 17.5219 32.3667C18.1876 32.5893 18.8088 32.9279 19.3565 33.3667C19.7935 33.7105 20.3095 33.9396 20.8576 34.0334C21.4036 33.9052 21.9084 33.6415 22.3254 33.2667C22.8906 32.8598 23.5228 32.5552 24.1934 32.3667C24.9052 32.2425 25.6331 32.2425 26.3449 32.3667C26.8902 32.5205 27.4675 32.5205 28.0128 32.3667C28.4192 31.9969 28.7187 31.525 28.8801 31C29.1451 30.3347 29.5232 29.7201 29.9976 29.1834C30.5286 28.7051 31.1454 28.3319 31.8156 28.0834C32.3338 27.9069 32.8026 27.6098 33.1832 27.2167C33.3245 26.6701 33.3245 26.0966 33.1832 25.55C33.0586 24.8388 33.0586 24.1113 33.1832 23.4C33.4024 22.7331 33.7415 22.1118 34.184 21.5667C34.564 21.1535 34.8286 20.6477 34.9512 20.1C34.8328 19.5459 34.5679 19.0336 34.184 18.6167C33.7415 18.0715 33.4024 17.4502 33.1832 16.7834C33.0586 16.0721 33.0586 15.3446 33.1832 14.6334C33.3245 14.0868 33.3245 13.5133 33.1832 12.9667C32.8026 12.5735 32.3338 12.2765 31.8156 12.1C31.1454 11.8515 30.5286 11.4782 29.9976 11C29.5232 10.4633 29.1451 9.8487 28.8801 9.18335C28.7187 8.65841 28.4192 8.18642 28.0128 7.81669C27.4675 7.66282 26.8902 7.66282 26.3449 7.81669C25.6339 7.94913 24.9044 7.94913 24.1934 7.81669C23.5276 7.59404 22.9065 7.25549 22.3587 6.81668C21.9418 6.4419 21.4369 6.17822 20.891 6.05002C20.345 6.17822 19.8402 6.4419 19.4233 6.81668C18.8755 7.25549 18.2544 7.59404 17.5886 7.81669C16.8775 7.94913 16.1481 7.94913 15.437 7.81669C14.8917 7.66282 14.3145 7.66282 13.7692 7.81669C13.3628 8.18642 13.0633 8.65841 12.9019 9.18335C12.6369 9.8487 12.2588 10.4633 11.7844 11C11.2534 11.4782 10.6365 11.8515 9.96639 12.1C9.44819 12.2765 8.97941 12.5735 8.59874 12.9667C8.4575 13.5133 8.4575 14.0868 8.59874 14.6334C8.72336 15.3446 8.72336 16.0721 8.59874 16.7834C8.3796 17.4502 8.04046 18.0715 7.59801 18.6167C7.21408 19.0336 6.94911 19.5459 6.83078 20.1C6.95339 20.6477 7.218 21.1535 7.59801 21.5667C8.04046 22.1118 8.3796 22.7331 8.59874 23.4C8.72336 24.1113 8.72336 24.8388 8.59874 25.55C8.4575 26.0966 8.4575 26.6701 8.59874 27.2167C8.97941 27.6098 9.44819 27.9069 9.96639 28.0834C10.6365 28.3319 11.2534 28.7051 11.7844 29.1834C12.2588 29.7201 12.6369 30.3347 12.9019 31C13.0633 31.525 13.3628 31.9969 13.7692 32.3667C14.3145 32.5205 14.8917 32.5205 15.437 32.3667C15.7539 32.2334 16.1209 32.2 16.4878 32.2Z" fill="#EAB308"/>
</g>
<defs>
<clipPath id="clip0_4_91687">
<rect width="40.029" height="40" fill="white" transform="translate(0.84375)"/>
</clipPath>
</defs>
</svg>
