<svg width="43" height="43" viewBox="0 0 43 43" fill="none" xmlns="http://www.w3.org/2000/svg">
<g id="easy exchange">
<path id="Vector" d="M21.0155 32.9815C20.4003 32.9804 19.7963 32.8174 19.2642 32.509L12.2591 28.484C11.7246 28.1756 11.2811 27.7316 10.9736 27.1969C10.6661 26.6622 10.5054 26.0557 10.5078 25.439V17.354C10.5054 16.7372 10.6661 16.1308 10.9736 15.5961C11.2811 15.0614 11.7246 14.6174 12.2591 14.309L19.2642 10.2315C19.7966 9.92429 20.4006 9.76257 21.0155 9.76257C21.6303 9.76257 22.2343 9.92429 22.7667 10.2315L29.7718 14.2565C30.3063 14.5648 30.7498 15.0089 31.0573 15.5436C31.3649 16.0783 31.5255 16.6848 31.5231 17.3015V25.369C31.5255 25.9857 31.3649 26.5921 31.0573 27.1269C30.7498 27.6616 30.3063 28.1056 29.7718 28.414L22.7667 32.439C22.2415 32.772 21.6371 32.9592 21.0155 32.9815ZM21.0155 11.9815C20.7691 11.983 20.5275 12.0494 20.315 12.174L13.3099 16.199C13.0942 16.3234 12.9145 16.5018 12.7886 16.7165C12.6628 16.9313 12.5949 17.1751 12.5919 17.424V25.4915C12.5966 25.74 12.6652 25.9831 12.7909 26.1976C12.9166 26.4121 13.0953 26.5907 13.3099 26.7165L20.315 30.7415C20.5285 30.8627 20.7699 30.9264 21.0155 30.9264C21.261 30.9264 21.5024 30.8627 21.716 30.7415L28.7211 26.7165C28.9356 26.5907 29.1143 26.4121 29.24 26.1976C29.3658 25.9831 29.4343 25.74 29.4391 25.4915V17.354C29.436 17.1051 29.3682 16.8613 29.2423 16.6465C29.1164 16.4318 28.9368 16.2534 28.7211 16.129L21.716 12.104C21.4969 12.0036 21.2556 11.9614 21.0155 11.9815Z" fill="#EAB308"/>
<path id="Vector_2" d="M21.0157 21.6414C20.2453 21.6386 19.4875 21.4462 18.8091 21.0814L11.6989 17.2314C11.4581 17.0917 11.2801 16.8649 11.2019 16.5978C11.1237 16.3307 11.1512 16.0438 11.2786 15.7964C11.4153 15.5524 11.6422 15.3718 11.9108 15.2932C12.1793 15.2147 12.4679 15.2446 12.7147 15.3764L19.8073 19.2439C20.1764 19.4509 20.5925 19.5596 21.0157 19.5596C21.4389 19.5596 21.855 19.4509 22.2241 19.2439L29.2291 15.4114C29.3508 15.3438 29.4847 15.301 29.6231 15.2855C29.7614 15.2701 29.9015 15.2822 30.0351 15.3213C30.1687 15.3604 30.2932 15.4256 30.4014 15.5132C30.5095 15.6007 30.5992 15.7089 30.6652 15.8314C30.7963 16.0753 30.8257 16.3611 30.747 16.6266C30.6683 16.8921 30.4878 17.1158 30.2449 17.2489L23.2398 21.0989C22.5546 21.4604 21.7905 21.6468 21.0157 21.6414Z" fill="#EAB308"/>
<path id="Vector_3" d="M21.0156 32.789C20.7369 32.789 20.4697 32.6784 20.2726 32.4814C20.0755 32.2845 19.9648 32.0175 19.9648 31.739V21.379C19.9648 21.1005 20.0755 20.8334 20.2726 20.6365C20.4697 20.4396 20.7369 20.329 21.0156 20.329C21.2943 20.329 21.5616 20.4396 21.7586 20.6365C21.9557 20.8334 22.0664 21.1005 22.0664 21.379V31.739C22.0664 32.0175 21.9557 32.2845 21.7586 32.4814C21.5616 32.6784 21.2943 32.789 21.0156 32.789Z" fill="#EAB308"/>
<path id="Vector_4" d="M36.776 25.089H36.6009C36.3247 25.0377 36.0792 24.8814 35.9159 24.6529C35.7526 24.4245 35.6843 24.1417 35.7253 23.864C35.8662 23.0432 35.9365 22.2118 35.9354 21.379C35.9336 18.4915 35.0928 15.6667 33.5151 13.2476C31.9374 10.8285 29.6907 8.91918 27.0478 7.75162C24.405 6.58406 21.4798 6.20846 18.6274 6.67042C15.7751 7.13239 13.1183 8.41205 10.9798 10.354C10.7731 10.542 10.5002 10.6402 10.221 10.6271C9.94185 10.6139 9.67934 10.4905 9.49123 10.284C9.30312 10.0775 9.20483 9.8047 9.21796 9.52574C9.2311 9.24678 9.3546 8.98447 9.56128 8.79649C12.1846 6.42064 15.4833 4.92031 18.9991 4.50396C22.515 4.08761 26.0733 4.77593 29.1796 6.47327C32.286 8.17061 34.7861 10.7927 36.3326 13.9752C37.8792 17.1576 38.3953 20.7424 37.8093 24.2315C37.7643 24.4725 37.6364 24.6901 37.4477 24.8467C37.2589 25.0034 37.0213 25.0891 36.776 25.089Z" fill="#EAB308"/>
<path id="Vector_5" d="M21.0157 38.4065C17.951 38.4131 14.9413 37.5936 12.3036 36.0343C9.66584 34.4751 7.49777 32.2338 6.02772 29.5467C4.55768 26.8595 3.84008 23.8259 3.95052 20.7655C4.06097 17.705 4.99536 14.7309 6.65528 12.1565C6.81927 11.9567 7.05125 11.8243 7.30682 11.7847C7.56239 11.7451 7.8236 11.8011 8.04044 11.942C8.25728 12.0828 8.41452 12.2986 8.48207 12.5481C8.54962 12.7976 8.52273 13.0632 8.40655 13.294C6.30486 16.4309 5.47056 20.247 6.07163 23.9739C6.6727 27.7008 8.6645 31.0617 11.646 33.3799C14.6275 35.6982 18.3772 36.8015 22.1401 36.4678C25.9031 36.1341 29.3997 34.3882 31.9261 31.5815C32.2238 31.249 32.504 30.9165 32.7842 30.5665C32.8682 30.4516 32.9739 30.3544 33.0955 30.2803C33.2171 30.2063 33.352 30.1568 33.4927 30.1349C33.6334 30.113 33.777 30.1189 33.9153 30.1525C34.0537 30.186 34.1841 30.2464 34.2991 30.3303C34.4141 30.4142 34.5114 30.5199 34.5855 30.6413C34.6596 30.7628 34.7091 30.8977 34.731 31.0382C34.753 31.1788 34.747 31.3223 34.7135 31.4606C34.6799 31.5988 34.6194 31.7291 34.5355 31.844C34.2203 32.2407 33.8875 32.6257 33.5373 32.999C31.9381 34.717 29.9995 36.0846 27.8442 37.0154C25.6888 37.9462 23.3637 38.4199 21.0157 38.4065Z" fill="#EAB308"/>
<path id="Vector_6" d="M36.007 27.9764C35.8849 27.993 35.7612 27.993 35.6392 27.9764C35.3797 27.8782 35.1696 27.6814 35.0547 27.429C34.9399 27.1765 34.9296 26.8889 35.0263 26.6289C36.1908 23.4309 36.2323 19.9322 35.1439 16.7075C34.0555 13.4828 31.9019 10.7239 29.0369 8.88395C28.8994 8.82198 28.7768 8.73114 28.6775 8.6176C28.5782 8.50406 28.5045 8.37047 28.4615 8.22594C28.4185 8.08141 28.4072 7.92933 28.4283 7.78002C28.4494 7.63072 28.5024 7.4877 28.5837 7.3607C28.665 7.2337 28.7728 7.1257 28.8996 7.04404C29.0265 6.96238 29.1695 6.90897 29.3188 6.88745C29.4681 6.86594 29.6204 6.87682 29.7651 6.91935C29.9099 6.96188 30.0438 7.03508 30.1577 7.13395C33.4281 9.23204 35.8863 12.3802 37.1277 16.0603C38.369 19.7404 38.3197 23.7331 36.9877 27.3814C36.8995 27.5649 36.7599 27.7189 36.5858 27.8245C36.4117 27.9301 36.2106 27.9829 36.007 27.9764Z" fill="#EAB308"/>
<path id="Vector_7" d="M35.2715 34.7315C35.0287 34.7323 34.793 34.6491 34.6047 34.496C34.4163 34.3428 34.2868 34.1292 34.2383 33.8915L33.6428 30.934L30.6657 31.529C30.531 31.5569 30.3921 31.5577 30.2572 31.5313C30.1222 31.5049 29.9939 31.4518 29.8797 31.3752C29.7655 31.2986 29.6678 31.2 29.5923 31.0852C29.5167 30.9703 29.4649 30.8416 29.4398 30.7065C29.4117 30.5709 29.4107 30.431 29.4369 30.295C29.4632 30.159 29.516 30.0295 29.5926 29.914C29.6691 29.7986 29.7677 29.6993 29.8827 29.6221C29.9978 29.5448 30.127 29.4911 30.2629 29.464L34.2733 28.6765C34.5442 28.6174 34.8274 28.6677 35.0614 28.8165C35.2914 28.9776 35.4487 29.2228 35.4992 29.499L36.3048 33.489C36.3564 33.7603 36.2989 34.041 36.1448 34.2703C35.9908 34.4996 35.7525 34.659 35.4817 34.714L35.2715 34.7315Z" fill="#EAB308"/>
<path id="Vector_8" d="M9.43884 11.9815C9.19513 11.9858 8.95776 11.9038 8.76868 11.7501C8.5796 11.5964 8.451 11.3808 8.40559 11.1415L7.61752 7.18653C7.58942 7.0509 7.58846 6.91106 7.61467 6.77506C7.64089 6.63906 7.69378 6.50959 7.77028 6.3941C7.84679 6.27861 7.94541 6.17938 8.06045 6.10214C8.1755 6.0249 8.3047 5.97116 8.44062 5.94403C8.57652 5.91626 8.71662 5.91612 8.85257 5.94361C8.98853 5.97111 9.11755 6.02568 9.23195 6.10406C9.34635 6.18245 9.44378 6.28306 9.51844 6.39988C9.5931 6.5167 9.64346 6.64734 9.6665 6.78403L10.2619 9.70653L13.2391 9.11153C13.3739 9.08106 13.5136 9.0784 13.6494 9.10373C13.7853 9.12906 13.9146 9.18185 14.0294 9.25885C14.1441 9.33585 14.242 9.43544 14.3169 9.55154C14.3918 9.66764 14.4422 9.79779 14.465 9.93403C14.4929 10.0686 14.4937 10.2074 14.4673 10.3422C14.4409 10.4771 14.3878 10.6053 14.3111 10.7194C14.2345 10.8335 14.1358 10.9312 14.0209 11.0067C13.9059 11.0821 13.7771 11.1339 13.6419 11.159L9.63148 11.9815H9.43884Z" fill="#EAB308"/>
</g>
</svg>
