<svg width="36" height="35" viewBox="0 0 36 35" fill="none" xmlns="http://www.w3.org/2000/svg">
<g id="vuesax/outline/box-time">
<g id="box-time">
<path id="Vector" d="M17.7398 19.3958C17.55 19.3958 17.3603 19.3521 17.1852 19.25L4.29877 11.7979C3.77339 11.4917 3.59823 10.8208 3.9047 10.2958C4.21118 9.77081 4.8679 9.59578 5.40787 9.90203L17.7398 17.0333L29.9986 9.94582C30.524 9.63957 31.1953 9.82918 31.5018 10.3396C31.8083 10.8646 31.6186 11.5354 31.1078 11.8416L18.3089 19.25C18.1192 19.3375 17.9295 19.3958 17.7398 19.3958Z" fill="#EAB308"/>
<path id="Vector_2" d="M17.7391 32.6084C17.1407 32.6084 16.6445 32.1126 16.6445 31.5147V18.2876C16.6445 17.6897 17.1407 17.1938 17.7391 17.1938C18.3374 17.1938 18.8336 17.6897 18.8336 18.2876V31.5147C18.8336 32.1126 18.3374 32.6084 17.7391 32.6084Z" fill="#EAB308"/>
<path id="Vector_3" d="M17.7394 33.1771C16.4551 33.1771 15.1708 32.9 14.1784 32.3312L6.38529 28.0146C4.26917 26.848 2.60547 24.0334 2.60547 21.6125V13.3583C2.60547 10.9375 4.26917 8.13755 6.38529 6.9563L14.1784 2.6396C16.1632 1.53127 19.2863 1.53127 21.2857 2.6396L29.0788 6.9563C31.1949 8.12296 32.8586 10.9375 32.8586 13.3583V21.6125C32.8586 21.7146 32.8586 21.8604 32.8149 22.05C32.7273 22.4292 32.45 22.7354 32.0852 22.8521C31.7203 22.9687 31.3117 22.8959 31.0198 22.6334C29.3561 21.175 26.7584 21.1167 24.9779 22.5313C23.8542 23.4209 23.1975 24.7771 23.1975 26.2208C23.1975 27.0812 23.431 27.9271 23.8834 28.6563C24.0001 28.8605 24.1169 29.0209 24.2482 29.1667C24.4671 29.4146 24.5547 29.75 24.4963 30.0708C24.438 30.3917 24.2337 30.6834 23.9418 30.8292L21.2711 32.3021C20.2933 32.9001 19.0236 33.1771 17.7394 33.1771ZM17.7394 4.01044C16.8345 4.01044 15.9151 4.20003 15.2584 4.56461L7.46522 8.88131C6.04961 9.66881 4.82373 11.7541 4.82373 13.3583V21.6125C4.82373 23.2167 6.06421 25.3167 7.46522 26.0896L15.2584 30.4062C16.5864 31.15 18.9069 31.15 20.2349 30.4062L21.8694 29.5021C21.3294 28.525 21.0376 27.3875 21.0376 26.2208C21.0376 24.0917 21.9862 22.123 23.6353 20.8105C25.6347 19.2209 28.4659 18.8854 30.6842 19.8479V13.3438C30.6842 11.7396 29.4437 9.63963 28.0427 8.86671L20.2495 4.55001C19.5636 4.20001 18.6442 4.01044 17.7394 4.01044Z" fill="#EAB308"/>
<path id="Vector_4" d="M27.9556 33.177C24.1319 33.177 21.0234 30.0708 21.0234 26.25C21.0234 24.1208 21.972 22.152 23.6212 20.8395C24.847 19.8624 26.394 19.3229 27.9556 19.3229C31.7792 19.3229 34.8877 22.4291 34.8877 26.25C34.8877 28.2333 34.0266 30.1291 32.5235 31.4416C31.2538 32.5645 29.6339 33.177 27.9556 33.177ZM27.9556 21.5104C26.8756 21.5104 25.854 21.8749 24.993 22.5603C23.8693 23.4499 23.2125 24.8062 23.2125 26.25C23.2125 28.8604 25.3432 30.9895 27.9556 30.9895C29.0939 30.9895 30.203 30.5666 31.0932 29.8083C32.1148 28.9041 32.6986 27.6208 32.6986 26.25C32.6986 23.6395 30.5679 21.5104 27.9556 21.5104Z" fill="#EAB308"/>
<path id="Vector_5" d="M26.4949 28.8021C26.1301 28.8021 25.7652 28.6126 25.5609 28.2771C25.2544 27.7521 25.415 27.0813 25.9404 26.775L27.2392 26.0021V24.4271C27.2392 23.8292 27.7354 23.3334 28.3338 23.3334C28.9321 23.3334 29.4283 23.8292 29.4283 24.4271V26.6146C29.4283 26.9938 29.224 27.3584 28.9029 27.548L27.0787 28.6417C26.8744 28.7584 26.6847 28.8021 26.4949 28.8021Z" fill="#EAB308"/>
</g>
</g>
</svg>
