<svg width="24" height="24" viewBox="0 0 24 24" fill="none" xmlns="http://www.w3.org/2000/svg">
<path d="M10.8633 21.0601L11.4273 21.4959C11.5042 21.5728 11.6323 21.5984 11.7349 21.5984H11.8118C11.8118 21.5984 11.8118 21.5984 11.8374 21.5984C11.9399 21.5984 12.0681 21.5472 12.145 21.4959L12.4783 21.2396C15.9132 18.548 22.3218 13.498 22.3218 8.16613C22.3218 4.98749 19.7327 2.39844 16.5541 2.39844C14.5803 2.39844 12.8115 3.37254 11.7349 4.98749C10.6839 3.39817 8.86384 2.39844 6.94128 2.39844C3.76264 2.39844 1.19922 4.98749 1.19922 8.16613C1.19922 13.4724 7.24889 18.2147 10.8633 21.0601ZM6.94128 3.4238C8.7613 3.4238 10.4275 4.47481 11.2222 6.11539C11.2478 6.16666 11.2735 6.24356 11.2735 6.24356C11.376 6.44864 11.6067 6.57681 11.8118 6.52554C11.9912 6.49991 12.145 6.39737 12.1963 6.21793C12.1963 6.21793 12.2476 6.11539 12.2732 6.06412C13.0678 4.42354 14.7084 3.39817 16.5285 3.39817C19.1431 3.39817 21.2708 5.52581 21.2708 8.14049C21.2708 12.9854 15.1186 17.8302 11.7861 20.4193L11.7349 20.4449L11.5042 20.2655C8.01791 17.5226 2.22459 12.9597 2.22459 8.16613C2.22459 5.55144 4.32659 3.4238 6.94128 3.4238Z" fill="#221F20"/>
</svg>
