<svg width="43" height="42" viewBox="0 0 43 42" fill="none" xmlns="http://www.w3.org/2000/svg">
<g id="secure payment">
<path id="Vector" d="M22.3943 36.2775C21.9406 36.2819 21.4938 36.1672 21.0984 35.945L16.9478 33.6175C14.6181 32.3105 12.6782 30.4077 11.3271 28.1043C9.9761 25.8009 9.26258 23.1798 9.25977 20.51V10.92C9.26618 10.3368 9.46293 9.77174 9.82012 9.31057C10.1773 8.8494 10.6754 8.51738 11.2387 8.36496L21.7463 5.61746C22.1933 5.49454 22.6653 5.49454 23.1123 5.61746L33.6199 8.36496C34.1832 8.51738 34.6813 8.8494 35.0385 9.31057C35.3957 9.77174 35.5925 10.3368 35.5989 10.92V20.51C35.5924 23.1791 34.8774 25.7987 33.5267 28.1015C32.1761 30.4042 30.2382 32.3077 27.9108 33.6175L23.7603 35.945C23.3443 36.1794 22.8716 36.2945 22.3943 36.2775ZM22.3943 7.61246H22.2542L11.7466 10.3775C11.6291 10.4077 11.5246 10.4752 11.4488 10.5699C11.373 10.6646 11.33 10.7813 11.3263 10.9025V20.51C11.327 22.807 11.9408 25.0623 13.1045 27.0434C14.2681 29.0244 15.9394 30.6594 17.9461 31.78L22.0966 34.1075C22.1743 34.1594 22.2658 34.1871 22.3593 34.1871C22.4528 34.1871 22.5442 34.1594 22.622 34.1075L26.8775 31.78C28.8842 30.6594 30.5555 29.0244 31.7192 27.0434C32.8828 25.0623 33.4966 22.807 33.4974 20.51V10.92C33.4936 10.7988 33.4506 10.6821 33.3748 10.5874C33.299 10.4927 33.1945 10.4252 33.077 10.395L22.5694 7.64746L22.3943 7.61246Z" fill="#EAB308"/>
<path id="Vector_2" d="M27.1414 20.4575C26.3932 19.7347 25.46 19.2321 24.4444 19.005L21.8701 18.235C21.322 18.1076 20.8081 17.8628 20.364 17.5175C20.2086 17.3944 20.0836 17.2373 19.9986 17.0583C19.9136 16.8793 19.8709 16.6832 19.8736 16.485C19.8692 16.1353 19.9869 15.795 20.2063 15.5225C20.4563 15.2321 20.7755 15.0093 21.1345 14.875C21.5482 14.7181 21.988 14.6409 22.4305 14.6475C22.9083 14.6571 23.3791 14.7643 23.814 14.9625C24.2171 15.1615 24.5703 15.4486 24.8472 15.8025C25.0307 16.0551 25.178 16.3319 25.285 16.625C25.3179 16.7417 25.3944 16.8413 25.4988 16.9032C25.6031 16.9651 25.7272 16.9845 25.8454 16.9575L27.3165 16.695C27.3862 16.6811 27.4521 16.6527 27.5101 16.6116C27.5681 16.5706 27.6168 16.5179 27.6531 16.4568C27.6894 16.3958 27.7125 16.3278 27.7209 16.2573C27.7293 16.1868 27.7228 16.1154 27.7018 16.0475C27.5135 15.4146 27.2108 14.8215 26.8086 14.2975C26.3144 13.7218 25.6901 13.2718 24.9873 12.985C24.7181 12.8573 24.4364 12.7576 24.1467 12.6875C24.0356 12.6632 23.9364 12.601 23.8661 12.5116C23.7958 12.4222 23.7588 12.3112 23.7614 12.1975V11.235C23.7614 11.1004 23.7079 10.9714 23.6127 10.8762C23.5174 10.781 23.3883 10.7275 23.2536 10.7275H21.8525C21.7866 10.7275 21.7214 10.7407 21.6608 10.7664C21.6001 10.7922 21.5452 10.8298 21.4995 10.8772C21.4537 10.9246 21.418 10.9807 21.3944 11.0421C21.3708 11.1036 21.3598 11.1692 21.3622 11.235V12.0925C21.3641 12.2087 21.3246 12.3217 21.2508 12.4114C21.177 12.5012 21.0738 12.5618 20.9594 12.5825C20.5833 12.675 20.2191 12.8101 19.8736 12.985C19.1568 13.2819 18.5464 13.7882 18.1223 14.4375C17.6983 15.1061 17.4848 15.8864 17.5094 16.6775C17.4957 17.5452 17.7911 18.3894 18.3429 19.0594C18.8947 19.7294 19.6669 20.1815 20.5216 20.335L24.0241 21.42C24.4749 21.5311 24.8904 21.7538 25.2325 22.0675C25.3628 22.2014 25.4642 22.3605 25.5305 22.5351C25.5967 22.7097 25.6264 22.896 25.6178 23.0825C25.6221 23.3767 25.5522 23.6672 25.4144 23.9272C25.2767 24.1872 25.0756 24.4083 24.8297 24.57C24.2232 24.9703 23.5071 25.1721 22.7807 25.1475C21.985 25.1659 21.2067 24.9128 20.5741 24.43C20.0661 24.0295 19.6883 23.4875 19.4883 22.8725C19.4521 22.7628 19.3768 22.6701 19.2767 22.612C19.1767 22.554 19.0588 22.5346 18.9454 22.5575L17.5094 22.785C17.442 22.7975 17.3778 22.8234 17.3207 22.8613C17.2637 22.8991 17.2148 22.9482 17.1772 23.0054C17.1396 23.0626 17.1139 23.1269 17.1018 23.1943C17.0896 23.2616 17.0913 23.3308 17.1066 23.3975C17.2774 24.1576 17.6204 24.8683 18.1092 25.4751C18.598 26.0818 19.2196 26.5685 19.9261 26.8975C20.2747 27.0565 20.6385 27.1796 21.0119 27.265C21.1247 27.2861 21.226 27.3474 21.2969 27.4376C21.3678 27.5277 21.4034 27.6406 21.3972 27.755V28.6475C21.3972 28.7775 21.4489 28.9021 21.5408 28.994C21.6328 29.0859 21.7575 29.1375 21.8876 29.1375H23.2886C23.4203 29.1376 23.5469 29.0866 23.6417 28.9951C23.7364 28.9037 23.7919 28.7791 23.7965 28.6475V27.7725C23.7908 27.6555 23.8289 27.5405 23.9034 27.45C23.9778 27.3594 24.0833 27.2998 24.1992 27.2825C24.627 27.202 25.0442 27.0728 25.4426 26.8975C26.2004 26.5549 26.8489 26.0099 27.3165 25.3225C27.7796 24.6294 28.0181 23.8107 27.9995 22.9775C28.0457 22.0589 27.7387 21.1574 27.1414 20.4575Z" fill="#EAB308"/>
</g>
</svg>
