<svg width="24" height="24" viewBox="0 0 24 24" fill="none" xmlns="http://www.w3.org/2000/svg">
<path fill-rule="evenodd" clip-rule="evenodd" d="M3.54589 6.52202C3.78657 6.3066 4.09822 6.1875 4.42122 6.1875L19.5787 6.1875C19.9017 6.1875 20.2133 6.3066 20.454 6.52202C20.6947 6.73744 20.8475 7.03403 20.8831 7.35506L22.2165 19.3551C22.2369 19.5385 22.2183 19.7242 22.162 19.9C22.1058 20.0758 22.0131 20.2378 21.89 20.3753C21.7669 20.5129 21.6161 20.6229 21.4476 20.6982C21.2791 20.7736 21.0966 20.8125 20.912 20.8125H3.08789C2.9033 20.8125 2.72079 20.7736 2.55227 20.6982C2.38375 20.6229 2.23302 20.5129 2.10991 20.3753C1.9868 20.2378 1.89409 20.0758 1.83784 19.9C1.78158 19.7242 1.76303 19.5385 1.78342 19.3551L3.11675 7.35506C3.15242 7.03403 3.30521 6.73744 3.54589 6.52202ZM4.42122 7.3125C4.37508 7.3125 4.33056 7.32951 4.29618 7.36029C4.26179 7.39106 4.23997 7.43343 4.23487 7.47929L2.90154 19.4793C2.89863 19.5055 2.90127 19.532 2.90931 19.5571C2.91735 19.5823 2.93059 19.6054 2.94818 19.625C2.96577 19.6447 2.9873 19.6604 3.01137 19.6712C3.03545 19.6819 3.06152 19.6875 3.08789 19.6875H20.912C20.9384 19.6875 20.9644 19.6819 20.9885 19.6712C21.0126 19.6604 21.0341 19.6447 21.0517 19.625C21.0693 19.6054 21.0825 19.5823 21.0906 19.5571C21.0986 19.532 21.1013 19.5055 21.0983 19.4793L19.765 7.47929C19.7599 7.43343 19.7381 7.39106 19.7037 7.36029C19.6693 7.32951 19.6248 7.3125 19.5787 7.3125L4.42122 7.3125Z" fill="#221F20"/>
<path fill-rule="evenodd" clip-rule="evenodd" d="M12 2.5625C11.1546 2.5625 10.3439 2.89832 9.7461 3.4961C9.14832 4.09387 8.8125 4.90462 8.8125 5.75V8.75C8.8125 9.06066 8.56066 9.3125 8.25 9.3125C7.93934 9.3125 7.6875 9.06066 7.6875 8.75V5.75C7.6875 4.60625 8.14185 3.50935 8.9506 2.7006C9.75935 1.89185 10.8563 1.4375 12 1.4375C13.1437 1.4375 14.2406 1.89185 15.0494 2.7006C15.8581 3.50935 16.3125 4.60625 16.3125 5.75V8.75C16.3125 9.06066 16.0607 9.3125 15.75 9.3125C15.4393 9.3125 15.1875 9.06066 15.1875 8.75V5.75C15.1875 4.90462 14.8517 4.09387 14.2539 3.4961C13.6561 2.89832 12.8454 2.5625 12 2.5625Z" fill="#221F20"/>
</svg>
