<svg width="24" height="24" viewBox="0 0 24 24" fill="none" xmlns="http://www.w3.org/2000/svg">
<path fill-rule="evenodd" clip-rule="evenodd" d="M19.3899 13.3979C19.0902 13.5344 18.6694 13.6247 18.0675 13.6845C16.4519 17.411 13.059 20.23 12.001 21.0467C10.9398 20.2275 7.52967 17.3941 5.91997 13.651C5.28429 13.569 4.85712 13.4422 4.55859 13.2461C5.18739 15.054 6.28735 16.8798 7.82626 18.6496C8.61748 19.5558 9.47315 20.4036 10.3866 21.1864H5.25095C5.10177 21.1864 4.95869 21.2457 4.8532 21.3512C4.74772 21.4567 4.68845 21.5998 4.68845 21.7489C4.68845 21.8981 4.74772 22.0412 4.8532 22.1467C4.95869 22.2522 5.10177 22.3114 5.25095 22.3114H18.751C18.9001 22.3114 19.0432 22.2522 19.1487 22.1467C19.2542 22.0412 19.3135 21.8981 19.3135 21.7489C19.3135 21.5998 19.2542 21.4567 19.1487 21.3512C19.0432 21.2457 18.9001 21.1864 18.751 21.1864H13.6153C14.5288 20.4036 15.3844 19.5558 16.1756 18.6496C17.6718 16.9289 18.7531 15.1563 19.3899 13.3979Z" fill="black"/>
<path d="M19.3899 13.3979L19.5027 13.4388L19.5999 13.1704L19.3401 13.2887L19.3899 13.3979ZM18.0675 13.6845L18.0556 13.5651L17.9855 13.572L17.9574 13.6367L18.0675 13.6845ZM12.001 21.0467L11.9276 21.1417L12.001 21.1983L12.0743 21.1417L12.001 21.0467ZM5.91997 13.651L6.0302 13.6036L6.00318 13.5408L5.93533 13.532L5.91997 13.651ZM4.55859 13.2461L4.62447 13.1458L4.32922 12.9519L4.44525 13.2855L4.55859 13.2461ZM7.82626 18.6496L7.73571 18.7283L7.73587 18.7285L7.82626 18.6496ZM10.3866 21.1864V21.3064H10.711L10.4647 21.0953L10.3866 21.1864ZM4.8532 21.3512L4.76835 21.2663L4.76835 21.2663L4.8532 21.3512ZM4.8532 22.1467L4.93806 22.0618L4.93806 22.0618L4.8532 22.1467ZM19.1487 22.1467L19.0638 22.0618L19.0638 22.0618L19.1487 22.1467ZM13.6153 21.1864L13.5372 21.0953L13.2909 21.3064H13.6153V21.1864ZM16.1756 18.6496L16.266 18.7285L16.2662 18.7283L16.1756 18.6496ZM19.3401 13.2887C19.0587 13.4169 18.6538 13.5057 18.0556 13.5651L18.0794 13.8039C18.6851 13.7438 19.1216 13.6519 19.4396 13.5071L19.3401 13.2887ZM17.9574 13.6367C16.3547 17.3336 12.9829 20.1371 11.9276 20.9518L12.0743 21.1417C13.135 20.3229 16.5492 17.4883 18.1776 13.7322L17.9574 13.6367ZM12.0743 20.9518C11.0158 20.1346 7.62707 17.3168 6.0302 13.6036L5.80973 13.6984C7.43226 17.4713 10.8638 20.3205 11.9276 21.1417L12.0743 20.9518ZM5.93533 13.532C5.30547 13.4507 4.90007 13.3268 4.62447 13.1458L4.49272 13.3464C4.81418 13.5575 5.26312 13.6872 5.9046 13.7701L5.93533 13.532ZM4.44525 13.2855C5.08 15.1106 6.1888 16.9493 7.73571 18.7283L7.91682 18.5708C6.38589 16.8102 5.29478 14.9975 4.67193 13.2067L4.44525 13.2855ZM7.73587 18.7285C8.53089 19.639 9.39067 20.4909 10.3085 21.2776L10.4647 21.0953C9.55563 20.3162 8.70407 19.4725 7.91666 18.5706L7.73587 18.7285ZM10.3866 21.0664H5.25095V21.3064H10.3866V21.0664ZM5.25095 21.0664C5.06994 21.0664 4.89635 21.1383 4.76835 21.2663L4.93806 21.436C5.02104 21.3531 5.13359 21.3064 5.25095 21.3064V21.0664ZM4.76835 21.2663C4.64036 21.3943 4.56845 21.5679 4.56845 21.7489H4.80845C4.80845 21.6316 4.85507 21.519 4.93806 21.436L4.76835 21.2663ZM4.56845 21.7489C4.56845 21.9299 4.64036 22.1035 4.76835 22.2315L4.93806 22.0618C4.85507 21.9788 4.80845 21.8663 4.80845 21.7489H4.56845ZM4.76835 22.2315C4.89635 22.3595 5.06994 22.4314 5.25095 22.4314V22.1914C5.13359 22.1914 5.02104 22.1448 4.93806 22.0618L4.76835 22.2315ZM5.25095 22.4314H18.751V22.1914H5.25095V22.4314ZM18.751 22.4314C18.932 22.4314 19.1056 22.3595 19.2336 22.2315L19.0638 22.0618C18.9809 22.1448 18.8683 22.1914 18.751 22.1914V22.4314ZM19.2336 22.2315C19.3615 22.1035 19.4335 21.9299 19.4335 21.7489H19.1935C19.1935 21.8663 19.1468 21.9788 19.0638 22.0618L19.2336 22.2315ZM19.4335 21.7489C19.4335 21.5679 19.3615 21.3943 19.2336 21.2663L19.0638 21.436C19.1468 21.519 19.1935 21.6316 19.1935 21.7489H19.4335ZM19.2336 21.2663C19.1056 21.1383 18.932 21.0664 18.751 21.0664V21.3064C18.8683 21.3064 18.9809 21.3531 19.0638 21.436L19.2336 21.2663ZM18.751 21.0664H13.6153V21.3064H18.751V21.0664ZM13.6934 21.2776C14.6112 20.4909 15.471 19.639 16.266 18.7285L16.0852 18.5706C15.2978 19.4725 14.4463 20.3162 13.5372 21.0953L13.6934 21.2776ZM16.2662 18.7283C17.7702 16.9987 18.86 15.2136 19.5027 13.4388L19.277 13.3571C18.6462 15.0991 17.5735 16.8591 16.0851 18.5708L16.2662 18.7283Z" fill="white"/>
<path fill-rule="evenodd" clip-rule="evenodd" d="M3.94298 6.85991L4.8205 3.70776C5.08582 3.17077 5.20872 3.05324 5.27143 3.01538C5.33282 2.97832 5.41512 2.96007 5.91373 2.96007H18.0604C18.0604 2.96007 18.0613 2.96007 18.0632 2.96018L18.0713 2.96085C18.0784 2.96161 18.0882 2.963 18.1005 2.96548C18.1252 2.97047 18.1578 2.97938 18.1969 2.9944C18.2748 3.02438 18.3738 3.07708 18.4819 3.16515C18.6945 3.33845 18.9563 3.66106 19.1461 4.24536L19.9953 6.85991H15.7941C15.732 6.83817 15.6652 6.82635 15.5957 6.82636C15.5262 6.82638 15.4595 6.83819 15.3975 6.85991H8.64138C8.59683 6.84436 8.54971 6.83385 8.50065 6.82913C8.4112 6.82051 8.32445 6.83201 8.24488 6.85991H3.94298ZM7.8016 8.05991H3.78783C3.78705 8.07244 3.78587 8.08501 3.78429 8.09763C3.71105 8.68316 3.75322 9.39439 4.03307 9.9316C4.16786 10.1903 4.35507 10.4047 4.61338 10.5578C4.8726 10.7113 5.23712 10.8231 5.75614 10.8231C6.41549 10.8231 6.85987 10.704 7.16192 10.5439C7.45714 10.3873 7.64799 10.1752 7.77913 9.92778C7.81677 9.85678 7.84961 9.78295 7.87827 9.70671C7.80295 9.14115 7.78478 8.57736 7.8016 8.05991ZM8.25014 11.2419C8.09729 11.3767 7.92276 11.4987 7.72404 11.6041C7.20544 11.879 6.55564 12.0231 5.75614 12.0231C5.06072 12.0231 4.47686 11.8717 4.0017 11.5902C3.52564 11.3081 3.19248 10.9153 2.96882 10.486C2.55418 9.69005 2.50864 8.75928 2.58088 8.05991H2.36328L2.57511 7.299L3.67935 3.33245L3.69402 3.27976L3.71798 3.23059C3.98831 2.6757 4.24647 2.23244 4.65123 1.98808C5.03313 1.75752 5.46931 1.75882 5.83916 1.75992L5.91373 1.76007H18.0604C18.7411 1.76007 19.783 2.32158 20.2874 3.87468L21.3917 7.27457L21.6467 8.05991H21.4194L21.4194 8.06899C21.4198 8.69021 21.4205 9.66808 20.9849 10.4898C20.7513 10.9305 20.395 11.3255 19.8695 11.6041C19.351 11.879 18.7011 12.0231 17.9016 12.0231C17.2062 12.0231 16.6224 11.8717 16.1472 11.5902C15.9857 11.4945 15.8407 11.3861 15.7108 11.2678C15.6994 11.2973 15.6878 11.3267 15.6759 11.3559C15.4051 12.0196 14.9841 12.6392 14.331 13.0891C13.6767 13.5397 12.8383 13.7864 11.7909 13.7864C10.8788 13.7864 10.1288 13.5268 9.5359 13.0704C8.95014 12.6195 8.55508 12.0058 8.29312 11.3525C8.27841 11.3158 8.26408 11.2789 8.25014 11.2419ZM9.10562 9.79928C9.17118 10.1863 9.26903 10.562 9.40691 10.9059C9.61239 11.4183 9.89592 11.8332 10.2678 12.1195C10.6326 12.4002 11.1194 12.5864 11.7909 12.5864C12.646 12.5864 13.2344 12.3873 13.6503 12.1008C14.0674 11.8135 14.36 11.4046 14.5648 10.9025C14.7009 10.5691 14.794 10.2069 14.8577 9.83154C14.6838 9.21293 14.6733 8.57392 14.7264 8.05991H9.27387L9.27387 8.06899C9.27419 8.52227 9.27463 9.16544 9.10562 9.79928ZM16.0864 9.72735C16.1137 9.79767 16.1444 9.86593 16.1786 9.9316C16.3134 10.1903 16.5006 10.4047 16.7589 10.5578C17.0181 10.7113 17.3826 10.8231 17.9016 10.8231C18.561 10.8231 19.0054 10.704 19.3074 10.5439C19.6026 10.3873 19.7935 10.1752 19.9246 9.92778C20.2025 9.40357 20.219 8.72531 20.2193 8.05991H16.1934C16.187 8.57253 16.1646 9.14694 16.0864 9.72735Z" fill="black"/>
<path d="M4.8205 3.70776L4.71292 3.65461L4.70792 3.66472L4.7049 3.67558L4.8205 3.70776ZM3.94298 6.85991L3.82738 6.82773L3.78501 6.97991H3.94298V6.85991ZM5.27143 3.01538L5.20941 2.91265H5.20941L5.27143 3.01538ZM18.0632 2.96018L18.0732 2.84054L18.0698 2.84036L18.0632 2.96018ZM18.0713 2.96085L18.084 2.8415L18.0813 2.84127L18.0713 2.96085ZM18.1005 2.96548L18.0767 3.08311L18.0767 3.08311L18.1005 2.96548ZM18.1969 2.9944L18.1538 3.10639V3.10639L18.1969 2.9944ZM18.4819 3.16515L18.5577 3.07214V3.07214L18.4819 3.16515ZM19.1461 4.24536L19.2602 4.20829L19.1461 4.24536ZM19.9953 6.85991V6.97991H20.1604L20.1094 6.82284L19.9953 6.85991ZM15.7941 6.85991L15.7545 6.97317L15.7737 6.97991H15.7941V6.85991ZM15.5957 6.82636L15.5957 6.70636L15.5957 6.82636ZM15.3975 6.85991V6.97991H15.4179L15.4371 6.97317L15.3975 6.85991ZM8.64138 6.85991L8.60183 6.97321L8.62104 6.97991H8.64138V6.85991ZM8.50065 6.82913L8.48914 6.94857H8.48914L8.50065 6.82913ZM8.24488 6.85991V6.97991H8.26531L8.28459 6.97315L8.24488 6.85991ZM3.78783 8.05991V7.93991H3.67508L3.66806 8.05245L3.78783 8.05991ZM7.8016 8.05991L7.92153 8.06381L7.92556 7.93991H7.8016V8.05991ZM3.78429 8.09763L3.90337 8.11253V8.11253L3.78429 8.09763ZM4.03307 9.9316L3.92665 9.98704L4.03307 9.9316ZM4.61338 10.5578L4.67455 10.4545H4.67455L4.61338 10.5578ZM7.16192 10.5439L7.10571 10.4378L7.16192 10.5439ZM7.77913 9.92778L7.88515 9.98399L7.77913 9.92778ZM7.87827 9.70671L7.9906 9.74893L8.00119 9.72073L7.99722 9.69087L7.87827 9.70671ZM8.25014 11.2419L8.36246 11.1996L8.30122 11.0368L8.17075 11.1519L8.25014 11.2419ZM7.72404 11.6041L7.78025 11.7101L7.72404 11.6041ZM4.0017 11.5902L3.94053 11.6934L4.0017 11.5902ZM2.96882 10.486L3.07524 10.4306L2.96882 10.486ZM2.58088 8.05991L2.70024 8.07224L2.71391 7.93991H2.58088V8.05991ZM2.36328 8.05991L2.24768 8.02773L2.20531 8.17991H2.36328V8.05991ZM2.57511 7.299L2.45951 7.26682L2.57511 7.299ZM3.67935 3.33245L3.79496 3.36464L3.67935 3.33245ZM3.69402 3.27976L3.58614 3.2272L3.58135 3.23704L3.57842 3.24758L3.69402 3.27976ZM3.71798 3.23059L3.82586 3.28314L3.71798 3.23059ZM4.65123 1.98808L4.58921 1.88535V1.88535L4.65123 1.98808ZM5.83916 1.75992L5.8388 1.87992L5.83892 1.87992L5.83916 1.75992ZM5.91373 1.76007L5.91349 1.88007H5.91373V1.76007ZM20.2874 3.87468L20.4015 3.83761L20.2874 3.87468ZM21.3917 7.27457L21.2775 7.31164L21.3917 7.27457ZM21.6467 8.05991V8.17991H21.8119L21.7609 8.02284L21.6467 8.05991ZM21.4194 8.05991V7.93991H21.2993L21.2994 8.05999L21.4194 8.05991ZM21.4194 8.06899L21.2994 8.06907V8.06908L21.4194 8.06899ZM20.9849 10.4898L21.0909 10.546L20.9849 10.4898ZM19.8695 11.6041L19.8133 11.498L19.8695 11.6041ZM16.1472 11.5902L16.086 11.6934H16.086L16.1472 11.5902ZM15.7108 11.2678L15.7916 11.1791L15.662 11.0611L15.5989 11.2246L15.7108 11.2678ZM15.6759 11.3559L15.787 11.4012L15.6759 11.3559ZM14.331 13.0891L14.263 12.9902L14.331 13.0891ZM9.5359 13.0704L9.4627 13.1655L9.5359 13.0704ZM8.29312 11.3525L8.4045 11.3079L8.29312 11.3525ZM9.10562 9.79928L8.98967 9.76836L8.98295 9.79359L8.98731 9.81932L9.10562 9.79928ZM9.40691 10.9059L9.51829 10.8613L9.40691 10.9059ZM10.2678 12.1195L10.341 12.0244L10.2678 12.1195ZM13.6503 12.1008L13.7184 12.1996V12.1996L13.6503 12.1008ZM14.5648 10.9025L14.4537 10.8572L14.5648 10.9025ZM14.8577 9.83154L14.976 9.85163L14.9806 9.82503L14.9733 9.79906L14.8577 9.83154ZM14.7264 8.05991L14.8458 8.07224L14.8594 7.93991H14.7264V8.05991ZM9.27387 8.05991V7.93991H9.1538L9.15387 8.05998L9.27387 8.05991ZM9.27387 8.06899L9.15387 8.06906V8.06908L9.27387 8.06899ZM16.0864 9.72735L15.9675 9.71132L15.9633 9.74198L15.9745 9.77081L16.0864 9.72735ZM16.1786 9.9316L16.285 9.87616L16.1786 9.9316ZM16.7589 10.5578L16.6977 10.661L16.7589 10.5578ZM19.3074 10.5439L19.2512 10.4378L19.3074 10.5439ZM19.9246 9.92778L19.8186 9.87158L19.9246 9.92778ZM20.2193 8.05991L20.3393 8.05998L20.3394 7.93991H20.2193V8.05991ZM16.1934 8.05991V7.93991H16.0748L16.0734 8.05843L16.1934 8.05991ZM4.7049 3.67558L3.82738 6.82773L4.05858 6.8921L4.93611 3.73995L4.7049 3.67558ZM5.20941 2.91265C5.15867 2.94328 5.10097 2.99643 5.02403 3.10503C4.94716 3.21352 4.84692 3.38339 4.71292 3.65461L4.92809 3.76092C5.05941 3.49514 5.15328 3.33775 5.21986 3.24377C5.28637 3.14989 5.32147 3.12535 5.33345 3.11811L5.20941 2.91265ZM5.91373 2.84007C5.66456 2.84007 5.51381 2.84456 5.4165 2.85444C5.31592 2.86465 5.26074 2.88166 5.20941 2.91265L5.33345 3.11811C5.3435 3.11204 5.36017 3.10139 5.44074 3.09321C5.52459 3.0847 5.66429 3.08007 5.91373 3.08007V2.84007ZM18.0604 2.84007H5.91373V3.08007H18.0604V2.84007ZM18.0698 2.84036C18.0678 2.84025 18.066 2.84017 18.0645 2.84013C18.0637 2.84011 18.063 2.84009 18.0623 2.84008C18.062 2.84008 18.0617 2.84008 18.0614 2.84007C18.0612 2.84007 18.0611 2.84007 18.0609 2.84007C18.0609 2.84007 18.0608 2.84007 18.0607 2.84007C18.0607 2.84007 18.0607 2.84007 18.0607 2.84007C18.0607 2.84007 18.0607 2.84007 18.0607 2.84007C18.0607 2.84007 18.0607 2.84007 18.0607 2.84007C18.0607 2.84007 18.0607 2.84007 18.0607 2.84007C18.0607 2.84007 18.0607 2.84007 18.0608 2.84007C18.0608 2.84007 18.061 2.84007 18.0611 2.84007C18.0619 2.84008 18.1804 2.96081 18.0613 3.08007C18.061 3.08007 18.0606 3.08007 18.0605 3.08007C18.0605 3.08007 18.0604 3.08007 18.0604 3.08007C18.0604 3.08007 18.0604 3.08007 18.0604 3.08007V2.84007C18.0604 2.84007 18.0604 2.84007 18.0604 2.84007C18.0603 2.84007 18.0603 2.84007 18.0603 2.84007C18.0602 2.84007 18.0598 2.84007 18.0595 2.84007C17.9404 2.95933 18.0589 3.08006 18.0597 3.08007C18.0598 3.08007 18.06 3.08007 18.06 3.08007C18.06 3.08007 18.0601 3.08007 18.0601 3.08007C18.0601 3.08007 18.0601 3.08007 18.0601 3.08007C18.0601 3.08007 18.0601 3.08007 18.0601 3.08007C18.0601 3.08007 18.0601 3.08007 18.0601 3.08007C18.0601 3.08007 18.0601 3.08007 18.0601 3.08007C18.06 3.08007 18.0599 3.08007 18.0599 3.08007C18.0597 3.08007 18.0596 3.08007 18.0595 3.08007C18.0593 3.08006 18.059 3.08006 18.0588 3.08006C18.0584 3.08005 18.058 3.08004 18.0577 3.08004C18.0571 3.08002 18.0567 3.08 18.0566 3.07999L18.0698 2.84036ZM18.0813 2.84127L18.0732 2.84059L18.0532 3.07976L18.0613 3.08044L18.0813 2.84127ZM18.1242 2.84785C18.1084 2.84467 18.095 2.84269 18.084 2.84153L18.0586 3.08018C18.0618 3.08052 18.0679 3.08133 18.0767 3.08311L18.1242 2.84785ZM18.24 2.88241C18.1949 2.86508 18.1558 2.85424 18.1242 2.84785L18.0767 3.08311C18.0946 3.08671 18.1207 3.09368 18.1538 3.10639L18.24 2.88241ZM18.5577 3.07214C18.44 2.97618 18.3299 2.91702 18.24 2.88241L18.1538 3.10639C18.2196 3.13175 18.3077 3.17799 18.4061 3.25817L18.5577 3.07214ZM19.2602 4.20829C19.0642 3.60484 18.7904 3.26176 18.5577 3.07214L18.4061 3.25817C18.5987 3.41515 18.8484 3.71729 19.032 4.28243L19.2602 4.20829ZM20.1094 6.82284L19.2602 4.20829L19.032 4.28243L19.8811 6.89698L20.1094 6.82284ZM15.7941 6.97991H19.9953V6.73991H15.7941V6.97991ZM15.5957 6.94636C15.6516 6.94635 15.7049 6.95583 15.7545 6.97317L15.8338 6.74665C15.7591 6.72051 15.6789 6.70635 15.5957 6.70636L15.5957 6.94636ZM15.4371 6.97317C15.4866 6.95585 15.5399 6.94637 15.5957 6.94636L15.5957 6.70636C15.5125 6.70638 15.4324 6.72053 15.3578 6.74665L15.4371 6.97317ZM8.64138 6.97991H15.3975V6.73991H8.64138V6.97991ZM8.48914 6.94857C8.52857 6.95237 8.56628 6.9608 8.60183 6.97321L8.68093 6.74662C8.62738 6.72792 8.57085 6.71533 8.51215 6.70968L8.48914 6.94857ZM8.28459 6.97315C8.34808 6.95089 8.41737 6.94166 8.48914 6.94857L8.51215 6.70968C8.40503 6.69936 8.30082 6.71313 8.20516 6.74667L8.28459 6.97315ZM3.94298 6.97991H8.24488V6.73991H3.94298V6.97991ZM3.78783 8.17991H7.8016V7.93991H3.78783V8.17991ZM3.90337 8.11253C3.90525 8.09744 3.90666 8.08238 3.9076 8.06738L3.66806 8.05245C3.66744 8.06249 3.66649 8.07259 3.66522 8.08274L3.90337 8.11253ZM4.1395 9.87616C3.87536 9.36911 3.83167 8.68562 3.90337 8.11253L3.66522 8.08274C3.59042 8.68071 3.63109 9.41968 3.92665 9.98704L4.1395 9.87616ZM4.67455 10.4545C4.43799 10.3144 4.26538 10.1178 4.1395 9.87616L3.92665 9.98704C4.07033 10.2629 4.27215 10.4951 4.55221 10.661L4.67455 10.4545ZM5.75614 10.7031C5.25479 10.7031 4.91219 10.5953 4.67455 10.4545L4.55221 10.661C4.833 10.8274 5.21945 10.9431 5.75614 10.9431V10.7031ZM7.10571 10.4378C6.8253 10.5865 6.40146 10.7031 5.75614 10.7031V10.9431C6.42952 10.9431 6.89444 10.8215 7.21814 10.6499L7.10571 10.4378ZM7.6731 9.87158C7.55223 10.0996 7.37793 10.2935 7.10571 10.4378L7.21814 10.6499C7.53635 10.4812 7.74376 10.2507 7.88515 9.98399L7.6731 9.87158ZM7.76594 9.66449C7.73893 9.73635 7.70815 9.80547 7.6731 9.87158L7.88515 9.98399C7.92539 9.90809 7.96029 9.82955 7.9906 9.74893L7.76594 9.66449ZM7.99722 9.69087C7.92292 9.13293 7.90489 8.57585 7.92153 8.06381L7.68166 8.05601C7.66466 8.57888 7.68299 9.14937 7.75932 9.72255L7.99722 9.69087ZM8.17075 11.1519C8.02503 11.2804 7.85829 11.3971 7.66783 11.498L7.78025 11.7101C7.98724 11.6003 8.16955 11.473 8.32952 11.3318L8.17075 11.1519ZM7.66783 11.498C7.17089 11.7615 6.54164 11.9031 5.75614 11.9031V12.1431C6.56964 12.1431 7.23999 11.9965 7.78025 11.7101L7.66783 11.498ZM5.75614 11.9031C5.07834 11.9031 4.51642 11.7556 4.06287 11.4869L3.94053 11.6934C4.4373 11.9877 5.04309 12.1431 5.75614 12.1431V11.9031ZM4.06287 11.4869C3.6086 11.2178 3.29002 10.8429 3.07524 10.4306L2.86239 10.5414C3.09493 10.9878 3.44268 11.3984 3.94053 11.6934L4.06287 11.4869ZM3.07524 10.4306C2.67564 9.66347 2.62928 8.75925 2.70024 8.07224L2.46151 8.04758C2.388 8.75931 2.43272 9.71663 2.86239 10.5414L3.07524 10.4306ZM2.58088 7.93991H2.36328V8.17991H2.58088V7.93991ZM2.47889 8.0921L2.69072 7.33118L2.45951 7.26682L2.24768 8.02773L2.47889 8.0921ZM2.69072 7.33118L3.79496 3.36464L3.56375 3.30027L2.45951 7.26682L2.69072 7.33118ZM3.79496 3.36464L3.80963 3.31194L3.57842 3.24758L3.56375 3.30027L3.79496 3.36464ZM3.8019 3.33232L3.82586 3.28314L3.6101 3.17803L3.58614 3.2272L3.8019 3.33232ZM3.82586 3.28314C4.09712 2.72634 4.34235 2.31473 4.71325 2.09081L4.58921 1.88535C4.1506 2.15014 3.87949 2.62506 3.6101 3.17803L3.82586 3.28314ZM4.71325 2.09081C5.06208 1.88021 5.46408 1.8788 5.8388 1.87992L5.83951 1.63992C5.47455 1.63883 5.00418 1.63482 4.58921 1.88535L4.71325 2.09081ZM5.83892 1.87992L5.91349 1.88007L5.91398 1.64007L5.8394 1.63992L5.83892 1.87992ZM5.91373 1.88007H18.0604V1.64007H5.91373V1.88007ZM18.0604 1.88007C18.6782 1.88007 19.6813 2.39684 20.1733 3.91174L20.4015 3.83761C19.8847 2.24633 18.8041 1.64007 18.0604 1.64007V1.88007ZM20.1733 3.91174L21.2775 7.31164L21.5058 7.2375L20.4015 3.83761L20.1733 3.91174ZM21.2775 7.31164L21.5326 8.09698L21.7609 8.02284L21.5058 7.2375L21.2775 7.31164ZM21.6467 7.93991H21.4194V8.17991H21.6467V7.93991ZM21.2994 8.05999L21.2994 8.06907L21.5394 8.06892L21.5394 8.05984L21.2994 8.05999ZM21.2994 8.06908C21.2998 8.6943 21.2984 9.64218 20.8789 10.4336L21.0909 10.546C21.5426 9.69399 21.5398 8.68612 21.5394 8.06891L21.2994 8.06908ZM20.8789 10.4336C20.6555 10.855 20.3157 11.2317 19.8133 11.498L19.9258 11.7101C20.4742 11.4193 20.847 11.006 21.0909 10.546L20.8789 10.4336ZM19.8133 11.498C19.3164 11.7615 18.6871 11.9031 17.9016 11.9031V12.1431C18.7151 12.1431 19.3855 11.9965 19.9258 11.7101L19.8133 11.498ZM17.9016 11.9031C17.2238 11.9031 16.6619 11.7556 16.2084 11.4869L16.086 11.6934C16.5828 11.9877 17.1886 12.1431 17.9016 12.1431V11.9031ZM16.2084 11.4869C16.054 11.3955 15.9156 11.292 15.7916 11.1791L15.63 11.3566C15.7659 11.4802 15.9174 11.5935 16.086 11.6934L16.2084 11.4869ZM15.5989 11.2246C15.5878 11.2534 15.5764 11.2821 15.5648 11.3106L15.787 11.4012C15.7992 11.3713 15.8111 11.3412 15.8228 11.3111L15.5989 11.2246ZM15.5648 11.3106C15.3006 11.9581 14.8924 12.5566 14.263 12.9902L14.3991 13.1879C15.0758 12.7218 15.5096 12.081 15.787 11.4012L15.5648 11.3106ZM14.263 12.9902C13.6325 13.4245 12.8191 13.6664 11.7909 13.6664V13.9064C12.8575 13.9064 13.721 13.655 14.3991 13.1879L14.263 12.9902ZM11.7909 13.6664C10.9028 13.6664 10.1792 13.4141 9.60909 12.9753L9.4627 13.1655C10.0785 13.6395 10.8547 13.9064 11.7909 13.9064V13.6664ZM9.60909 12.9753C9.04473 12.5409 8.66082 11.9471 8.4045 11.3079L8.18174 11.3972C8.44934 12.0645 8.85556 12.6982 9.4627 13.1655L9.60909 12.9753ZM8.4045 11.3079C8.39012 11.272 8.37611 11.2359 8.36246 11.1996L8.13782 11.2841C8.15206 11.322 8.1667 11.3597 8.18174 11.3972L8.4045 11.3079ZM8.98731 9.81932C9.05396 10.2128 9.15381 10.5971 9.29553 10.9506L9.51829 10.8613C9.38424 10.527 9.28839 10.1597 9.22394 9.77924L8.98731 9.81932ZM9.29553 10.9506C9.50667 11.4771 9.80136 11.9118 10.1946 12.2146L10.341 12.0244C9.99049 11.7546 9.71811 11.3596 9.51829 10.8613L9.29553 10.9506ZM10.1946 12.2146C10.5822 12.5129 11.0953 12.7064 11.7909 12.7064V12.4664C11.1435 12.4664 10.683 12.2876 10.341 12.0244L10.1946 12.2146ZM11.7909 12.7064C12.6653 12.7064 13.2787 12.5025 13.7184 12.1996L13.5823 12.002C13.1902 12.272 12.6268 12.4664 11.7909 12.4664V12.7064ZM13.7184 12.1996C14.159 11.8961 14.4644 11.4661 14.6759 10.9479L14.4537 10.8572C14.2555 11.3431 13.9757 11.7309 13.5823 12.002L13.7184 12.1996ZM14.6759 10.9479C14.8161 10.6043 14.9113 10.2332 14.976 9.85163L14.7394 9.81145C14.6767 10.1807 14.5856 10.534 14.4537 10.8572L14.6759 10.9479ZM14.9733 9.79906C14.8045 9.19891 14.7937 8.57585 14.8458 8.07224L14.607 8.04758C14.5529 8.57199 14.5631 9.22694 14.7422 9.86402L14.9733 9.79906ZM14.7264 7.93991H9.27387V8.17991H14.7264V7.93991ZM9.15387 8.05998L9.15387 8.06906L9.39387 8.06893L9.39387 8.05985L9.15387 8.05998ZM9.15387 8.06908C9.15419 8.52363 9.15408 9.15179 8.98967 9.76836L9.22157 9.8302C9.39518 9.17908 9.39418 8.52092 9.39387 8.06891L9.15387 8.06908ZM15.9745 9.77081C16.0033 9.84492 16.0358 9.91721 16.0722 9.98704L16.285 9.87616C16.253 9.81465 16.2241 9.75041 16.1982 9.68388L15.9745 9.77081ZM16.0722 9.98704C16.2158 10.2629 16.4177 10.4951 16.6977 10.661L16.8201 10.4545C16.5835 10.3144 16.4109 10.1178 16.285 9.87616L16.0722 9.98704ZM16.6977 10.661C16.9785 10.8274 17.365 10.9431 17.9016 10.9431V10.7031C17.4003 10.7031 17.0577 10.5953 16.8201 10.4545L16.6977 10.661ZM17.9016 10.9431C18.575 10.9431 19.0399 10.8215 19.3636 10.6499L19.2512 10.4378C18.9708 10.5865 18.547 10.7031 17.9016 10.7031V10.9431ZM19.3636 10.6499C19.6819 10.4812 19.8893 10.2507 20.0307 9.98399L19.8186 9.87158C19.6977 10.0996 19.5234 10.2935 19.2512 10.4378L19.3636 10.6499ZM20.0307 9.98399C20.3248 9.42908 20.339 8.71986 20.3393 8.05998L20.0993 8.05985C20.099 8.73076 20.0802 9.37805 19.8186 9.87158L20.0307 9.98399ZM20.2193 7.93991H16.1934V8.17991H20.2193V7.93991ZM16.0734 8.05843C16.067 8.56899 16.0447 9.13788 15.9675 9.71132L16.2053 9.74337C16.2845 9.15599 16.307 8.57608 16.3133 8.0614L16.0734 8.05843Z" fill="white"/>
</svg>
