<svg width="24" height="24" viewBox="0 0 24 24" fill="none" xmlns="http://www.w3.org/2000/svg">
<path d="M16.1249 5.25034C16.1249 5.15088 16.1644 5.0555 16.2347 4.98517C16.3051 4.91484 16.4004 4.87534 16.4999 4.87534H18.3749V3.00034C18.3749 2.90088 18.4144 2.8055 18.4847 2.73517C18.5551 2.66485 18.6504 2.62534 18.7499 2.62534C18.8494 2.62534 18.9447 2.66485 19.0151 2.73517C19.0854 2.8055 19.1249 2.90088 19.1249 3.00034V4.87534H20.9999C21.0994 4.87534 21.1947 4.91484 21.2651 4.98517C21.3354 5.0555 21.3749 5.15088 21.3749 5.25034C21.3749 5.34979 21.3354 5.44517 21.2651 5.5155C21.1947 5.58583 21.0994 5.62534 20.9999 5.62534H19.1249V7.50034C19.1249 7.59979 19.0854 7.69518 19.0151 7.7655C18.9447 7.83583 18.8494 7.87534 18.7499 7.87534C18.6504 7.87534 18.5551 7.83583 18.4847 7.7655C18.4144 7.69518 18.3749 7.59979 18.3749 7.50034V5.62534H16.4999C16.4004 5.62534 16.3051 5.58583 16.2347 5.5155C16.1644 5.44517 16.1249 5.34979 16.1249 5.25034ZM21.2455 10.4385C21.5737 12.396 21.2714 14.4072 20.3823 16.1817C19.4932 17.9563 18.0632 19.4024 16.2988 20.3115C14.5343 21.2206 12.5267 21.5455 10.5656 21.2394C8.60451 20.9334 6.79138 20.0121 5.38788 18.6086C3.98439 17.2051 3.06312 15.392 2.75705 13.4309C2.45097 11.4698 2.77591 9.46214 3.68497 7.69771C4.59404 5.93328 6.04021 4.50333 7.81477 3.61421C9.58933 2.72509 11.6005 2.4228 13.558 2.75096C13.6554 2.76818 13.742 2.82313 13.799 2.90387C13.856 2.98461 13.8789 3.08461 13.8626 3.18211C13.8463 3.27961 13.7921 3.36672 13.7119 3.4245C13.6317 3.48228 13.5319 3.50606 13.4343 3.49065C12.9601 3.41292 12.4804 3.37435 11.9999 3.37534C10.2966 3.37658 8.63189 3.8821 7.21553 4.82815C5.79918 5.7742 4.69464 7.11844 4.04119 8.69136C3.38773 10.2643 3.21462 11.9955 3.54368 13.6666C3.87274 15.3378 4.68923 16.8741 5.89021 18.0819C6.82181 16.5244 8.31533 15.3835 10.063 14.8944C9.25043 14.4622 8.60571 13.7708 8.23142 12.93C7.85713 12.0891 7.77478 11.1473 7.99747 10.2543C8.22016 9.3613 8.7351 8.56842 9.46036 8.0018C10.1856 7.43519 11.0795 7.1274 11.9999 7.1274C12.9203 7.1274 13.8142 7.43519 14.5394 8.0018C15.2647 8.56842 15.7796 9.3613 16.0023 10.2543C16.225 11.1473 16.1427 12.0891 15.7684 12.93C15.3941 13.7708 14.7494 14.4622 13.9368 14.8944C15.6845 15.3835 17.178 16.5244 18.1096 18.0819C18.9078 17.2831 19.5407 16.3349 19.9723 15.2914C20.4039 14.2479 20.6256 13.1296 20.6249 12.0003C20.6248 11.5185 20.5849 11.0375 20.5058 10.5622C20.4904 10.4646 20.5142 10.3648 20.572 10.2846C20.6298 10.2044 20.7169 10.1502 20.8144 10.1339C20.9119 10.1176 21.0119 10.1404 21.0926 10.1975C21.1734 10.2545 21.2283 10.3411 21.2455 10.4385ZM11.9999 14.6253C12.6674 14.6253 13.3199 14.4274 13.8749 14.0565C14.43 13.6857 14.8625 13.1586 15.118 12.5419C15.3734 11.9252 15.4403 11.2466 15.3101 10.5919C15.1798 9.93722 14.8584 9.33585 14.3864 8.86385C13.9144 8.39185 13.313 8.07041 12.6583 7.94019C12.0036 7.80996 11.325 7.8768 10.7083 8.13224C10.0916 8.38769 9.56454 8.82027 9.19369 9.37529C8.82284 9.9303 8.6249 10.5828 8.6249 11.2503C8.6249 12.1454 8.98048 13.0039 9.61341 13.6368C10.2463 14.2698 11.1048 14.6253 11.9999 14.6253ZM11.9999 20.6253C14.029 20.6271 15.9932 19.9104 17.5443 18.6022C16.9879 17.6222 16.1818 16.8072 15.2079 16.2402C14.234 15.6733 13.1273 15.3745 12.0004 15.3745C10.8735 15.3745 9.76672 15.6733 8.79285 16.2402C7.81898 16.8072 7.01281 17.6222 6.45646 18.6022C8.00712 19.9105 9.97106 20.6273 11.9999 20.6253Z" fill="white" stroke="white" stroke-width="0.3"/>
</svg>
